<svg xmlns="http://www.w3.org/2000/svg" viewBox="0 0 23 23" id="share-linkedin">
  <path d="M21.224 0c.936 0 1.696.74 1.695 1.653v19.613c0 .913-.761 1.654-1.695 1.654H1.69c-.932 0-1.69-.741-1.69-1.654V1.653C0 .74.758 0 1.69 0h19.534zM5.098 3.155a1.972 1.972 0 1 0-.002 3.943 1.972 1.972 0 0 0 .002-3.943zM3.396 19.53h3.403V8.592H3.396V19.53zM8.931 8.592v-.001 10.94h3.395v-5.41c0-1.428.27-2.81 2.04-2.81 1.745 0 1.765 1.632 1.765 2.9v5.32h3.4v-6c0-2.945-.636-5.21-4.079-5.21-1.653 0-2.762.907-3.215 1.767h-.047V8.592H8.931z"></path>
</svg>
