<svg xmlns="http://www.w3.org/2000/svg" viewBox="0 0 24 20" id="share-twitter">
  <path d="M23.687 2.59a9.288 9.288 0 0 1-2.723.765A4.863 4.863 0 0 0 23.048.667a9.418 9.418 0 0 1-3.013 1.18A4.675 4.675 0 0 0 16.574.311c-2.62 0-4.743 2.178-4.743 4.861 0 .38.042.753.123 1.108-3.94-.203-7.435-2.139-9.773-5.08a4.92 4.92 0 0 0-.642 2.444c0 1.687.838 3.175 2.11 4.046A4.654 4.654 0 0 1 1.5 7.08v.06c0 2.356 1.635 4.321 3.804 4.768-.398.11-.817.17-1.25.17-.306 0-.602-.03-.893-.09.604 1.933 2.355 3.339 4.43 3.377a9.366 9.366 0 0 1-5.89 2.078c-.383 0-.76-.023-1.131-.066a13.166 13.166 0 0 0 7.269 2.187c8.723 0 13.492-7.408 13.492-13.833l-.016-.63a9.605 9.605 0 0 0 2.372-2.512z"></path>
</svg>